
<svg
   width="250"
   height="250"
   version="1.1"
   id="svg943"
   sodipodi:docname="icon.svg"
   inkscape:version="1.1.1 (c3084ef, 2021-09-22)"
   xmlns:inkscape="http://www.inkscape.org/namespaces/inkscape"
   xmlns:sodipodi="http://sodipodi.sourceforge.net/DTD/sodipodi-0.dtd"
   xmlns="http://www.w3.org/2000/svg"
   xmlns:svg="http://www.w3.org/2000/svg">
  <defs
     id="defs947" />
  <sodipodi:namedview
     id="namedview945"
     pagecolor="#ffffff"
     bordercolor="#666666"
     borderopacity="1.0"
     inkscape:pageshadow="2"
     inkscape:pageopacity="0.0"
     inkscape:pagecheckerboard="0"
     showgrid="false"
     inkscape:zoom="0.86650248"
     inkscape:cx="-91.748151"
     inkscape:cy="-97.518475"
     inkscape:window-width="1920"
     inkscape:window-height="1147"
     inkscape:window-x="1094"
     inkscape:window-y="25"
     inkscape:window-maximized="0"
     inkscape:current-layer="svg943" />
  <g
     id="line927"
     style="fill:#3fe79c;fill-opacity:1;stroke:#1c1c00;stroke-width:15.4932;stroke-miterlimit:4;stroke-dasharray:none;stroke-opacity:1"
     transform="matrix(0.81075929,0,0,0.80664436,104.1994,27.149018)" />
  <g
     id="line929"
     style="fill:#3fe79c;fill-opacity:1;stroke:#1c1c00;stroke-width:15.4932;stroke-miterlimit:4;stroke-dasharray:none;stroke-opacity:1"
     transform="matrix(0.81075929,0,0,0.80664436,104.1994,27.149018)" />
  <g
     id="line931"
     style="fill:#3fe79c;fill-opacity:1;stroke:#1c1c00;stroke-width:15.4932;stroke-miterlimit:4;stroke-dasharray:none;stroke-opacity:1"
     transform="matrix(0.81075929,0,0,0.80664436,104.1994,27.149018)" />
  <path
     id="path1374"
     style="color:#000000;fill:#000000;fill-opacity:1;stroke:#04f70b;stroke-width:12.5293;stroke-linecap:round;stroke-miterlimit:4;stroke-dasharray:none;stroke-opacity:1"
     d="m 217.55469,195.84238 c -27.3117,0.01 -54.62462,-0.0248 -81.93553,0.0365 -6.75221,0.38626 -12.72554,6.30839 -13.03517,13.08909 -0.55914,6.70403 4.44907,13.42448 11.09502,14.646 3.28099,0.6584 6.64031,0.2248 9.95742,0.35658 25.13516,-0.006 50.27118,0.0227 75.40577,-0.0594 6.83676,-0.45312 12.68127,-6.65282 12.84642,-13.48165 0.26722,-5.41924 -3.00932,-10.7479 -7.86475,-13.11531 -1.99452,-1.0041 -4.23359,-1.53525 -6.46918,-1.47178 z" />
  <path
     id="path1366"
     style="color:#000000;fill:#000000;fill-opacity:1;stroke:#04f70b;stroke-width:12.5293;stroke-linecap:round;stroke-miterlimit:4;stroke-dasharray:none;stroke-opacity:1"
     d="m 136.83408,34.505688 c -6.83896,-0.0953 -13.2484,5.56137 -13.90437,12.38719 -0.25409,5.79235 -0.0761,11.59508 -0.14819,17.39175 -0.0768,48.837722 -0.16909,97.676202 -0.21211,146.513472 0.31312,6.79299 6.26833,12.79237 13.0622,13.14391 6.74163,0.61447 13.57167,-4.35787 14.83808,-11.04946 0.63392,-3.64735 0.22968,-7.36188 0.36156,-11.04032 0.0797,-51.38777 0.17416,-102.776282 0.22066,-154.163622 -0.27887,-7.23299 -6.99785,-13.42199 -14.21783,-13.18292 z" />
  <path
     id="path2482"
     style="color:#000000;fill:#000000;fill-opacity:1;stroke:#04f70b;stroke-width:12.5293;stroke-linecap:round;stroke-miterlimit:4;stroke-dasharray:none;stroke-opacity:1"
     d="m 153.68612,34.091418 c -6.16552,0.0369 -12.33597,-0.0516 -18.49817,0.10589 -7.02923,0.69697 -12.94269,7.26509 -12.79549,14.34625 -0.14958,6.98457 5.54717,13.56871 12.50219,14.35418 3.49855,0.35503 7.01848,0.0823 10.52679,0.1748 24.98297,-0.007 49.96682,0.0196 74.9492,-0.0559 7.05237,-0.41714 13.15444,-6.76405 13.34103,-13.81704 0.3033,-5.19804 -2.58564,-10.32795 -7.01198,-12.99971 -2.50162,-1.5662 -5.49209,-2.27721 -8.43184,-2.09032 -21.52717,-0.052 -43.05452,-0.0191 -64.58173,-0.0182 z" />
  <path
     id="path1370"
     style="color:#000000;fill:#000000;fill-opacity:1;stroke:#04f70b;stroke-width:12.5293;stroke-linecap:round;stroke-miterlimit:4;stroke-dasharray:none;stroke-opacity:1"
     d="m 218.79923,34.260968 c -4.42868,0.0248 -8.51674,2.4672 -11.38352,5.72096 -27.06443,26.66752 -54.15005,53.31206 -81.16726,80.026972 -4.68911,5.14526 -4.64765,13.84404 0.12027,18.92444 4.47323,5.19058 12.88265,6.33001 18.55725,2.47763 2.78473,-1.91594 4.92393,-4.57767 7.40246,-6.84574 25.93418,-25.56183 51.90297,-51.090452 77.78452,-76.704502 4.57964,-5.10068 4.477,-13.57379 -0.0601,-18.66698 -2.79696,-3.17377 -7.01826,-5.05001 -11.25364,-4.93278 z" />
  <g
     id="line935"
     style="fill:#3fe79c;fill-opacity:1;stroke:#1c1c00;stroke-width:15.4932;stroke-miterlimit:4;stroke-dasharray:none;stroke-opacity:1"
     transform="matrix(0.81075929,0,0,0.80664436,104.1994,27.149018)" />
  <g
     id="line937"
     style="fill:#3fe79c;fill-opacity:1;stroke:#1c1c00;stroke-width:15.4932;stroke-miterlimit:4;stroke-dasharray:none;stroke-opacity:1"
     transform="matrix(0.81075929,0,0,0.80664436,104.1994,27.149018)" />
  <g
     id="line939"
     style="fill:#3fe79c;fill-opacity:1;stroke:#1c1c00;stroke-width:15.4932;stroke-miterlimit:4;stroke-dasharray:none;stroke-opacity:1"
     transform="matrix(0.81075929,0,0,0.80664436,104.1994,27.149018)" />
  <path
     id="path1175"
     style="color:#000000;fill:#02130b;fill-opacity:1;stroke:#eaea16;stroke-width:12.5293;stroke-linecap:round;stroke-miterlimit:4;stroke-dasharray:none;stroke-opacity:1"
     d="m 30.271911,33.383128 c -6.792243,0.0885 -13.088782,5.71888 -13.739064,12.51488 -0.267769,3.74942 -0.04921,7.5118 -0.12761,11.26681 -0.0049,50.767542 -0.01368,101.535472 0.01503,152.302792 0.121105,4.87954 3.004843,9.54295 7.278637,11.88453 3.899064,2.24704 8.872355,2.48777 12.947767,0.5609 4.638285,-2.11567 8.124066,-6.82378 8.301793,-11.98306 0.185681,-2.92788 0.0035,-5.8638 0.07629,-8.79515 0.0024,-51.4401 0.01445,-102.880932 -0.02272,-154.320582 -0.272524,-6.47404 -5.56117,-12.3229 -11.977817,-13.2406 -0.907573,-0.1568 -1.83196,-0.20817 -2.752306,-0.19052 z" />
  <path
     id="path1171"
     style="color:#000000;fill:#02130b;fill-opacity:1;stroke:#eaea16;stroke-width:12.5293;stroke-linecap:round;stroke-miterlimit:4;stroke-dasharray:none;stroke-opacity:1"
     d="m 111.88923,33.269508 c -27.411401,0.008 -54.823655,-0.031 -82.234497,0.0549 -6.612694,0.32759 -12.467549,5.88578 -13.256669,12.43973 -0.767054,5.56167 2.108093,11.39781 6.960981,14.21112 2.553138,1.54299 5.581102,2.13806 8.540213,2.00725 27.140406,0.007 54.281726,0.0384 81.421552,-0.0465 6.97945,-0.43789 12.97131,-6.73776 13.1726,-13.7075 0.31223,-5.69826 -3.23647,-11.29422 -8.40544,-13.64011 -1.93047,-0.90126 -4.06579,-1.37667 -6.19874,-1.31893 z" />
  <path
     id="path1179"
     style="color:#000000;fill:#02130b;fill-opacity:1;stroke:#eaea16;stroke-width:12.5293;stroke-linecap:round;stroke-miterlimit:4;stroke-dasharray:none;stroke-opacity:1"
     d="m 111.64977,33.788648 c -4.34114,0.0222 -8.322,2.44995 -11.12349,5.63736 -26.807123,26.5911 -53.631576,53.16494 -80.406499,79.787192 -4.533028,4.96203 -4.567208,13.32038 -0.05681,18.30738 4.342797,5.18804 12.695344,6.39449 18.275059,2.53009 2.810422,-1.94366 4.958171,-4.64726 7.457841,-6.94548 25.630089,-25.41943 51.275101,-50.823392 76.866009,-76.280182 4.47418,-4.93438 4.40957,-13.14742 0.0628,-18.1394 -2.73208,-3.15621 -6.89704,-5.0178 -11.07486,-4.89696 z" />
  <path
     id="path2485"
     style="color:#000000;fill:#02130b;fill-opacity:1;stroke:#eaea16;stroke-width:12.5293;stroke-linecap:round;stroke-miterlimit:4;stroke-dasharray:none;stroke-opacity:1"
     d="m 29.801711,114.36086 c -6.694339,0.32688 -12.671502,6.13359 -13.05118,12.84987 -0.666988,6.65256 4.273294,13.30329 10.803356,14.66294 3.790334,0.67125 7.660168,0.26216 11.485773,0.39163 24.768416,0.0426 49.537654,0.1203 74.30562,0.0979 6.78404,-0.40858 12.72252,-6.47937 12.87443,-13.29287 0.42804,-6.66737 -4.70522,-13.21413 -11.3179,-14.28689 -3.43338,-0.54325 -6.91944,-0.17383 -10.37672,-0.29845 -24.862345,-0.0482 -49.724689,-0.0973 -74.587038,-0.14508 l -0.08845,0.0136 z" />
</svg>
